# Wavefront OBJ file automatically generated by Tiled2Unity

# Vertices (Count = 196)
v 0 -2 0
v -2 -2 0
v -2 0 0
v 0 0 0
v -4 -2 0
v -4 0 0
v -6 -2 0
v -6 0 0
v -8 -2 0
v -8 0 0
v -10 -2 0
v -10 0 0
v -12 -2 0
v -12 0 0
v -14 -2 0
v -14 0 0
v -16 -2 0
v -16 0 0
v -18 -2 0
v -18 0 0
v -20 -2 0
v -20 0 0
v -22 -2 0
v -22 0 0
v -24 -2 0
v -24 0 0
v -26 -2 0
v -26 0 0
v 0 -4 0
v -2 -4 0
v -4 -4 0
v -6 -4 0
v -8 -4 0
v -10 -4 0
v -12 -4 0
v -14 -4 0
v -16 -4 0
v -18 -4 0
v -20 -4 0
v -22 -4 0
v -24 -4 0
v -26 -4 0
v 0 -6 0
v -2 -6 0
v -4 -6 0
v -6 -6 0
v -8 -6 0
v -10 -6 0
v -12 -6 0
v -14 -6 0
v -16 -6 0
v -18 -6 0
v -20 -6 0
v -22 -6 0
v -24 -6 0
v -26 -6 0
v 0 -8 0
v -2 -8 0
v -4 -8 0
v -6 -8 0
v -8 -8 0
v -10 -8 0
v -12 -8 0
v -14 -8 0
v -16 -8 0
v -18 -8 0
v -20 -8 0
v -22 -8 0
v -24 -8 0
v -26 -8 0
v 0 -10 0
v -2 -10 0
v -4 -10 0
v -6 -10 0
v -8 -10 0
v -10 -10 0
v -12 -10 0
v -14 -10 0
v -16 -10 0
v -18 -10 0
v -20 -10 0
v -22 -10 0
v -24 -10 0
v -26 -10 0
v 0 -12 0
v -2 -12 0
v -4 -12 0
v -6 -12 0
v -8 -12 0
v -10 -12 0
v -12 -12 0
v -14 -12 0
v -16 -12 0
v -18 -12 0
v -20 -12 0
v -22 -12 0
v -24 -12 0
v -26 -12 0
v 0 -14 0
v -2 -14 0
v -4 -14 0
v -6 -14 0
v -8 -14 0
v -10 -14 0
v -12 -14 0
v -14 -14 0
v -16 -14 0
v -18 -14 0
v -20 -14 0
v -22 -14 0
v -24 -14 0
v -26 -14 0
v 0 -16 0
v -2 -16 0
v -4 -16 0
v -6 -16 0
v -8 -16 0
v -10 -16 0
v -12 -16 0
v -14 -16 0
v -16 -16 0
v -18 -16 0
v -20 -16 0
v -22 -16 0
v -24 -16 0
v -26 -16 0
v 0 -18 0
v -2 -18 0
v -4 -18 0
v -6 -18 0
v -8 -18 0
v -10 -18 0
v -12 -18 0
v -14 -18 0
v -16 -18 0
v -18 -18 0
v -20 -18 0
v -22 -18 0
v -24 -18 0
v -26 -18 0
v 0 -20 0
v -2 -20 0
v -4 -20 0
v -6 -20 0
v -8 -20 0
v -10 -20 0
v -12 -20 0
v -14 -20 0
v -16 -20 0
v -18 -20 0
v -20 -20 0
v -22 -20 0
v -24 -20 0
v -26 -20 0
v 0 -22 0
v -2 -22 0
v -4 -22 0
v -6 -22 0
v -8 -22 0
v -10 -22 0
v -12 -22 0
v -14 -22 0
v -16 -22 0
v -18 -22 0
v -20 -22 0
v -22 -22 0
v -24 -22 0
v -26 -22 0
v 0 -24 0
v -2 -24 0
v -4 -24 0
v -6 -24 0
v -8 -24 0
v -10 -24 0
v -12 -24 0
v -14 -24 0
v -16 -24 0
v -18 -24 0
v -20 -24 0
v -22 -24 0
v -24 -24 0
v -26 -24 0
v 0 -26 0
v -2 -26 0
v -4 -26 0
v -6 -26 0
v -8 -26 0
v -10 -26 0
v -12 -26 0
v -14 -26 0
v -16 -26 0
v -18 -26 0
v -20 -26 0
v -22 -26 0
v -24 -26 0
v -26 -26 0

# Texture Coorindates (Count = 64)
vt 0.1251221 0.3751221
vt 0.2498779 0.3751221
vt 0.2498779 0.4998779
vt 0.1251221 0.4998779
vt 0.0001220703 0.3751221
vt 0.1248779 0.3751221
vt 0.1248779 0.4998779
vt 0.0001220703 0.4998779
vt 0.0001220703 0.2501221
vt 0.1248779 0.2501221
vt 0.1248779 0.3748779
vt 0.0001220703 0.3748779
vt 0.1251221 0.2501221
vt 0.2498779 0.2501221
vt 0.2498779 0.3748779
vt 0.1251221 0.3748779
vt 0.1251221 0.7501221
vt 0.2498779 0.7501221
vt 0.2498779 0.8748779
vt 0.1251221 0.8748779
vt 0.2501221 0.8751221
vt 0.3748779 0.8751221
vt 0.3748779 0.9998779
vt 0.2501221 0.9998779
vt 0.3751221 0.7501221
vt 0.4998779 0.7501221
vt 0.4998779 0.8748779
vt 0.3751221 0.8748779
vt 0.0001220703 0.6251221
vt 0.1248779 0.6251221
vt 0.1248779 0.7498779
vt 0.0001220703 0.7498779
vt 0.1251221 0.6251221
vt 0.2498779 0.6251221
vt 0.2498779 0.7498779
vt 0.1251221 0.7498779
vt 0.3751221 0.6251221
vt 0.4998779 0.6251221
vt 0.4998779 0.7498779
vt 0.3751221 0.7498779
vt 0.1251221 0.5001221
vt 0.2498779 0.5001221
vt 0.2498779 0.6248779
vt 0.1251221 0.6248779
vt 0.3751221 0.5001221
vt 0.4998779 0.5001221
vt 0.4998779 0.6248779
vt 0.3751221 0.6248779
vt 0.1251221 0.8751221
vt 0.2498779 0.8751221
vt 0.2498779 0.9998779
vt 0.1251221 0.9998779
vt 0.3751221 0.8751221
vt 0.4998779 0.8751221
vt 0.4998779 0.9998779
vt 0.3751221 0.9998779
vt 0.2501221 0.7501221
vt 0.3748779 0.7501221
vt 0.3748779 0.8748779
vt 0.2501221 0.8748779
vt 0.0001220703 0.5001221
vt 0.1248779 0.5001221
vt 0.1248779 0.6248779
vt 0.0001220703 0.6248779

# Normal
vn 0 0 -1

# Groups (Count = 3)
g mesh_[00]_[00]
f  1/1/1  2/2/1  3/3/1  4/4/1 
f  2/1/1  5/2/1  6/3/1  3/4/1 
f  5/1/1  7/2/1  8/3/1  6/4/1 
f  7/1/1  9/2/1  10/3/1  8/4/1 
f  9/1/1  11/2/1  12/3/1  10/4/1 
f  11/1/1  13/2/1  14/3/1  12/4/1 
f  13/1/1  15/2/1  16/3/1  14/4/1 
f  15/1/1  17/2/1  18/3/1  16/4/1 
f  17/1/1  19/2/1  20/3/1  18/4/1 
f  19/1/1  21/2/1  22/3/1  20/4/1 
f  21/1/1  23/2/1  24/3/1  22/4/1 
f  23/1/1  25/2/1  26/3/1  24/4/1 
f  25/1/1  27/2/1  28/3/1  26/4/1 
f  29/1/1  30/2/1  2/3/1  1/4/1 
f  30/5/1  31/6/1  5/7/1  2/8/1 
f  31/1/1  32/2/1  7/3/1  5/4/1 
f  32/1/1  33/2/1  9/3/1  7/4/1 
f  33/1/1  34/2/1  11/3/1  9/4/1 
f  34/1/1  35/2/1  13/3/1  11/4/1 
f  35/1/1  36/2/1  15/3/1  13/4/1 
f  36/1/1  37/2/1  17/3/1  15/4/1 
f  37/1/1  38/2/1  19/3/1  17/4/1 
f  38/1/1  39/2/1  21/3/1  19/4/1 
f  39/1/1  40/2/1  23/3/1  21/4/1 
f  40/1/1  41/2/1  25/3/1  23/4/1 
f  41/1/1  42/2/1  27/3/1  25/4/1 
f  43/1/1  44/2/1  30/3/1  29/4/1 
f  44/5/1  45/6/1  31/7/1  30/8/1 
f  45/1/1  46/2/1  32/3/1  31/4/1 
f  46/1/1  47/2/1  33/3/1  32/4/1 
f  47/1/1  48/2/1  34/3/1  33/4/1 
f  48/1/1  49/2/1  35/3/1  34/4/1 
f  49/1/1  50/2/1  36/3/1  35/4/1 
f  50/1/1  51/2/1  37/3/1  36/4/1 
f  51/1/1  52/2/1  38/3/1  37/4/1 
f  52/1/1  53/2/1  39/3/1  38/4/1 
f  53/1/1  54/2/1  40/3/1  39/4/1 
f  54/1/1  55/2/1  41/3/1  40/4/1 
f  55/1/1  56/2/1  42/3/1  41/4/1 
f  57/1/1  58/2/1  44/3/1  43/4/1 
f  58/5/1  59/6/1  45/7/1  44/8/1 
f  59/1/1  60/2/1  46/3/1  45/4/1 
f  60/1/1  61/2/1  47/3/1  46/4/1 
f  61/1/1  62/2/1  48/3/1  47/4/1 
f  62/1/1  63/2/1  49/3/1  48/4/1 
f  63/1/1  64/2/1  50/3/1  49/4/1 
f  64/1/1  65/2/1  51/3/1  50/4/1 
f  65/1/1  66/2/1  52/3/1  51/4/1 
f  66/1/1  67/2/1  53/3/1  52/4/1 
f  67/1/1  68/2/1  54/3/1  53/4/1 
f  68/1/1  69/2/1  55/3/1  54/4/1 
f  69/1/1  70/2/1  56/3/1  55/4/1 
f  71/1/1  72/2/1  58/3/1  57/4/1 
f  72/5/1  73/6/1  59/7/1  58/8/1 
f  73/1/1  74/2/1  60/3/1  59/4/1 
f  74/1/1  75/2/1  61/3/1  60/4/1 
f  75/1/1  76/2/1  62/3/1  61/4/1 
f  76/1/1  77/2/1  63/3/1  62/4/1 
f  77/1/1  78/2/1  64/3/1  63/4/1 
f  78/1/1  79/2/1  65/3/1  64/4/1 
f  79/1/1  80/2/1  66/3/1  65/4/1 
f  80/1/1  81/2/1  67/3/1  66/4/1 
f  81/1/1  82/2/1  68/3/1  67/4/1 
f  82/1/1  83/2/1  69/3/1  68/4/1 
f  83/1/1  84/2/1  70/3/1  69/4/1 
f  85/1/1  86/2/1  72/3/1  71/4/1 
f  86/5/1  87/6/1  73/7/1  72/8/1 
f  87/1/1  88/2/1  74/3/1  73/4/1 
f  88/1/1  89/2/1  75/3/1  74/4/1 
f  89/1/1  90/2/1  76/3/1  75/4/1 
f  90/1/1  91/2/1  77/3/1  76/4/1 
f  91/1/1  92/2/1  78/3/1  77/4/1 
f  92/1/1  93/2/1  79/3/1  78/4/1 
f  93/1/1  94/2/1  80/3/1  79/4/1 
f  94/1/1  95/2/1  81/3/1  80/4/1 
f  95/1/1  96/2/1  82/3/1  81/4/1 
f  96/1/1  97/2/1  83/3/1  82/4/1 
f  97/1/1  98/2/1  84/3/1  83/4/1 
f  99/1/1  100/2/1  86/3/1  85/4/1 
f  100/5/1  101/6/1  87/7/1  86/8/1 
f  101/1/1  102/2/1  88/3/1  87/4/1 
f  102/1/1  103/2/1  89/3/1  88/4/1 
f  103/1/1  104/2/1  90/3/1  89/4/1 
f  104/1/1  105/2/1  91/3/1  90/4/1 
f  105/1/1  106/2/1  92/3/1  91/4/1 
f  106/1/1  107/2/1  93/3/1  92/4/1 
f  107/1/1  108/2/1  94/3/1  93/4/1 
f  108/1/1  109/2/1  95/3/1  94/4/1 
f  109/1/1  110/2/1  96/3/1  95/4/1 
f  110/1/1  111/2/1  97/3/1  96/4/1 
f  111/1/1  112/2/1  98/3/1  97/4/1 
f  113/1/1  114/2/1  100/3/1  99/4/1 
f  114/5/1  115/6/1  101/7/1  100/8/1 
f  115/1/1  116/2/1  102/3/1  101/4/1 
f  116/1/1  117/2/1  103/3/1  102/4/1 
f  117/1/1  118/2/1  104/3/1  103/4/1 
f  118/1/1  119/2/1  105/3/1  104/4/1 
f  119/1/1  120/2/1  106/3/1  105/4/1 
f  120/1/1  121/2/1  107/3/1  106/4/1 
f  121/1/1  122/2/1  108/3/1  107/4/1 
f  122/1/1  123/2/1  109/3/1  108/4/1 
f  123/1/1  124/2/1  110/3/1  109/4/1 
f  124/1/1  125/2/1  111/3/1  110/4/1 
f  125/1/1  126/2/1  112/3/1  111/4/1 
f  127/1/1  128/2/1  114/3/1  113/4/1 
f  128/5/1  129/6/1  115/7/1  114/8/1 
f  129/1/1  130/2/1  116/3/1  115/4/1 
f  130/1/1  131/2/1  117/3/1  116/4/1 
f  131/1/1  132/2/1  118/3/1  117/4/1 
f  132/1/1  133/2/1  119/3/1  118/4/1 
f  133/1/1  134/2/1  120/3/1  119/4/1 
f  134/1/1  135/2/1  121/3/1  120/4/1 
f  135/1/1  136/2/1  122/3/1  121/4/1 
f  136/1/1  137/2/1  123/3/1  122/4/1 
f  137/1/1  138/2/1  124/3/1  123/4/1 
f  138/1/1  139/2/1  125/3/1  124/4/1 
f  139/1/1  140/2/1  126/3/1  125/4/1 
f  141/1/1  142/2/1  128/3/1  127/4/1 
f  142/5/1  143/6/1  129/7/1  128/8/1 
f  143/1/1  144/2/1  130/3/1  129/4/1 
f  144/1/1  145/2/1  131/3/1  130/4/1 
f  145/1/1  146/2/1  132/3/1  131/4/1 
f  146/1/1  147/2/1  133/3/1  132/4/1 
f  147/1/1  148/2/1  134/3/1  133/4/1 
f  148/1/1  149/2/1  135/3/1  134/4/1 
f  149/1/1  150/2/1  136/3/1  135/4/1 
f  150/1/1  151/2/1  137/3/1  136/4/1 
f  151/1/1  152/2/1  138/3/1  137/4/1 
f  152/1/1  153/2/1  139/3/1  138/4/1 
f  153/1/1  154/2/1  140/3/1  139/4/1 
f  155/1/1  156/2/1  142/3/1  141/4/1 
f  156/5/1  157/6/1  143/7/1  142/8/1 
f  157/1/1  158/2/1  144/3/1  143/4/1 
f  158/1/1  159/2/1  145/3/1  144/4/1 
f  159/1/1  160/2/1  146/3/1  145/4/1 
f  160/1/1  161/2/1  147/3/1  146/4/1 
f  161/1/1  162/2/1  148/3/1  147/4/1 
f  162/1/1  163/2/1  149/3/1  148/4/1 
f  163/1/1  164/2/1  150/3/1  149/4/1 
f  164/1/1  165/2/1  151/3/1  150/4/1 
f  165/1/1  166/2/1  152/3/1  151/4/1 
f  166/1/1  167/2/1  153/3/1  152/4/1 
f  167/1/1  168/2/1  154/3/1  153/4/1 
f  169/1/1  170/2/1  156/3/1  155/4/1 
f  170/9/1  171/10/1  157/11/1  156/12/1 
f  171/13/1  172/14/1  158/15/1  157/16/1 
f  172/13/1  173/14/1  159/15/1  158/16/1 
f  173/13/1  174/14/1  160/15/1  159/16/1 
f  174/13/1  175/14/1  161/15/1  160/16/1 
f  175/13/1  176/14/1  162/15/1  161/16/1 
f  176/13/1  177/14/1  163/15/1  162/16/1 
f  177/13/1  178/14/1  164/15/1  163/16/1 
f  178/13/1  179/14/1  165/15/1  164/16/1 
f  179/13/1  180/14/1  166/15/1  165/16/1 
f  180/13/1  181/14/1  167/15/1  166/16/1 
f  181/1/1  182/2/1  168/3/1  167/4/1 
f  183/1/1  184/2/1  170/3/1  169/4/1 
f  184/1/1  185/2/1  171/3/1  170/4/1 
f  185/1/1  186/2/1  172/3/1  171/4/1 
f  186/1/1  187/2/1  173/3/1  172/4/1 
f  187/1/1  188/2/1  174/3/1  173/4/1 
f  188/1/1  189/2/1  175/3/1  174/4/1 
f  189/1/1  190/2/1  176/3/1  175/4/1 
f  190/1/1  191/2/1  177/3/1  176/4/1 
f  191/1/1  192/2/1  178/3/1  177/4/1 
f  192/1/1  193/2/1  179/3/1  178/4/1 
f  193/1/1  194/2/1  180/3/1  179/4/1 
f  194/1/1  195/2/1  181/3/1  180/4/1 
f  195/1/1  196/2/1  182/3/1  181/4/1 
g mesh_[01]_[00]
f  1/17/1  2/18/1  3/19/1  4/20/1 
f  2/21/1  5/22/1  6/23/1  3/24/1 
f  5/21/1  7/22/1  8/23/1  6/24/1 
f  7/21/1  9/22/1  10/23/1  8/24/1 
f  9/21/1  11/22/1  12/23/1  10/24/1 
f  11/21/1  13/22/1  14/23/1  12/24/1 
f  13/21/1  15/22/1  16/23/1  14/24/1 
f  15/21/1  17/22/1  18/23/1  16/24/1 
f  17/21/1  19/22/1  20/23/1  18/24/1 
f  19/21/1  21/22/1  22/23/1  20/24/1 
f  21/21/1  23/22/1  24/23/1  22/24/1 
f  23/21/1  25/22/1  26/23/1  24/24/1 
f  25/25/1  27/26/1  28/27/1  26/28/1 
f  29/29/1  30/30/1  2/31/1  1/32/1 
f  41/29/1  42/30/1  27/31/1  25/32/1 
f  43/29/1  44/30/1  30/31/1  29/32/1 
f  55/29/1  56/30/1  42/31/1  41/32/1 
f  57/29/1  58/30/1  44/31/1  43/32/1 
f  69/29/1  70/30/1  56/31/1  55/32/1 
f  71/33/1  72/34/1  58/35/1  57/36/1 
f  83/29/1  84/30/1  70/31/1  69/32/1 
f  85/29/1  86/30/1  72/31/1  71/32/1 
f  97/29/1  98/30/1  84/31/1  83/32/1 
f  99/29/1  100/30/1  86/31/1  85/32/1 
f  111/29/1  112/30/1  98/31/1  97/32/1 
f  113/29/1  114/30/1  100/31/1  99/32/1 
f  125/29/1  126/30/1  112/31/1  111/32/1 
f  127/33/1  128/34/1  114/35/1  113/36/1 
f  139/37/1  140/38/1  126/39/1  125/40/1 
f  141/29/1  142/30/1  128/31/1  127/32/1 
f  153/29/1  154/30/1  140/31/1  139/32/1 
f  155/29/1  156/30/1  142/31/1  141/32/1 
f  167/29/1  168/30/1  154/31/1  153/32/1 
f  169/29/1  170/30/1  156/31/1  155/32/1 
f  181/29/1  182/30/1  168/31/1  167/32/1 
f  183/41/1  184/42/1  170/43/1  169/44/1 
f  184/21/1  185/22/1  171/23/1  170/24/1 
f  185/21/1  186/22/1  172/23/1  171/24/1 
f  186/21/1  187/22/1  173/23/1  172/24/1 
f  187/21/1  188/22/1  174/23/1  173/24/1 
f  188/21/1  189/22/1  175/23/1  174/24/1 
f  189/21/1  190/22/1  176/23/1  175/24/1 
f  190/21/1  191/22/1  177/23/1  176/24/1 
f  191/21/1  192/22/1  178/23/1  177/24/1 
f  192/21/1  193/22/1  179/23/1  178/24/1 
f  193/21/1  194/22/1  180/23/1  179/24/1 
f  194/21/1  195/22/1  181/23/1  180/24/1 
f  195/45/1  196/46/1  182/47/1  181/48/1 
g mesh_[02]_[00]
f  45/49/1  46/50/1  32/51/1  31/52/1 
f  46/53/1  47/54/1  33/55/1  32/56/1 
f  48/49/1  49/50/1  35/51/1  34/52/1 
f  49/21/1  50/22/1  36/23/1  35/24/1 
f  50/53/1  51/54/1  37/55/1  36/56/1 
f  52/49/1  53/50/1  39/51/1  38/52/1 
f  53/53/1  54/54/1  40/55/1  39/56/1 
f  72/21/1  73/22/1  59/23/1  58/24/1 
f  73/21/1  74/22/1  60/23/1  59/24/1 
f  74/53/1  75/54/1  61/55/1  60/56/1 
f  76/49/1  77/50/1  63/51/1  62/52/1 
f  77/57/1  78/58/1  64/59/1  63/60/1 
f  78/53/1  79/54/1  65/55/1  64/56/1 
f  80/49/1  81/50/1  67/51/1  66/52/1 
f  81/21/1  82/22/1  68/23/1  67/24/1 
f  82/21/1  83/22/1  69/23/1  68/24/1 
f  91/29/1  92/30/1  78/31/1  77/32/1 
f  101/49/1  102/50/1  88/51/1  87/52/1 
f  102/57/1  103/58/1  89/59/1  88/60/1 
f  103/53/1  104/54/1  90/55/1  89/56/1 
f  105/61/1  106/62/1  92/63/1  91/64/1 
f  107/49/1  108/50/1  94/51/1  93/52/1 
f  108/57/1  109/58/1  95/59/1  94/60/1 
f  109/53/1  110/54/1  96/55/1  95/56/1 
f  116/29/1  117/30/1  103/31/1  102/32/1 
f  122/29/1  123/30/1  109/31/1  108/32/1 
f  128/53/1  129/54/1  115/55/1  114/56/1 
f  130/61/1  131/62/1  117/63/1  116/64/1 
f  132/49/1  133/50/1  119/51/1  118/52/1 
f  133/21/1  134/22/1  120/23/1  119/24/1 
f  134/53/1  135/54/1  121/55/1  120/56/1 
f  136/61/1  137/62/1  123/63/1  122/64/1 
f  138/49/1  139/50/1  125/51/1  124/52/1 
f  157/49/1  158/50/1  144/51/1  143/52/1 
f  158/21/1  159/22/1  145/23/1  144/24/1 
f  159/21/1  160/22/1  146/23/1  145/24/1 
f  160/53/1  161/54/1  147/55/1  146/56/1 
f  162/49/1  163/50/1  149/51/1  148/52/1 
f  163/21/1  164/22/1  150/23/1  149/24/1 
f  164/21/1  165/22/1  151/23/1  150/24/1 
f  165/53/1  166/54/1  152/55/1  151/56/1 
